<svg xmlns="http://www.w3.org/2000/svg" version="1.1" xmlns:xlink="http://www.w3.org/1999/xlink" xmlns:svgjs="http://svgjs.com/svgjs" width="1921" height="1080" preserveAspectRatio="none" viewBox="0 0 1921 1080">
    <g mask="url(&quot;#SvgjsMask1009&quot;)" fill="none">
        <rect width="1921" height="1080" x="0" y="0" fill="rgba(21, 67, 96, 1)"></rect>
        <path d="M0,553.656C127.336,561.502,261.32,641.808,373.923,581.835C486.656,521.793,520.358,377.115,559.651,255.584C595.409,144.989,609.225,29.787,589.443,-84.749C570.048,-197.039,511.116,-293.398,448.399,-388.54C376.941,-496.942,319.69,-629.745,198.863,-677.264C75.917,-725.616,-69.471,-697.949,-187.521,-638.637C-296.92,-583.672,-333.392,-450.197,-421.751,-365.45C-522.867,-268.467,-690.643,-237.008,-742.124,-106.701C-795.289,27.867,-766.63,192.258,-690.764,315.462C-617.524,434.402,-477.487,491.974,-345.436,537.509C-234.209,575.863,-117.431,546.42,0,553.656" fill="#11374f"></path>
        <path d="M1921 1636.141C2025.863 1634.1509999999998 2121.273 1585.58 2210.726 1530.8229999999999 2301.858 1475.038 2392.51 1412.671 2441.333 1317.628 2491.2960000000003 1220.366 2507.615 1105.807 2483.886 999.069 2460.992 896.087 2393.006 809.0930000000001 2312.996 740.3340000000001 2240.121 677.707 2141.429 667.614 2053.393 629.11 1949.475 583.6600000000001 1862.102 488.125 1748.811 493.57899999999995 1628.279 499.381 1515.962 569.3969999999999 1435.002 658.88 1353.181 749.3140000000001 1285.25 869.428 1299.138 990.59 1312.5839999999998 1107.898 1445.09 1168.239 1505.046 1269.96 1556.341 1356.987 1548.295 1475.205 1624.1190000000001 1541.9560000000001 1703.656 1611.976 1815.052 1638.152 1921 1636.141" fill="#194f71"></path>
    </g>
    <defs>
        <mask id="SvgjsMask1009">
            <rect width="1921" height="1080" fill="#ffffff"></rect>
        </mask>
    </defs>
</svg>