<svg xmlns="http://www.w3.org/2000/svg" version="1.1" xmlns:xlink="http://www.w3.org/1999/xlink" xmlns:svgjs="http://svgjs.com/svgjs" width="828" height="1792" preserveAspectRatio="none" viewBox="0 0 828 1792">
    <g mask="url(&quot;#SvgjsMask1013&quot;)" fill="none">
        <rect width="828" height="1792" x="0" y="0" fill="rgba(21, 67, 96, 1)"></rect>
        <path d="M0,618.909C113.985,606.272,199.389,520.334,303.525,472.294C428.796,414.505,617.871,433.831,674.193,307.894C730.64,181.677,561.501,58.7,550.12,-79.095C537.548,-231.317,691.495,-398.426,605.435,-524.613C522.228,-646.616,326.791,-591.125,181.799,-619.151C52.726,-644.1,-70.316,-703.312,-199.739,-680.249C-337.21,-655.752,-491.714,-607.533,-561.648,-486.671C-631.194,-366.479,-523.17,-215.422,-547.777,-78.758C-573.846,66.027,-751.908,182.846,-707.447,323.08C-664.207,459.463,-482.09,489.559,-350.093,544.755C-237.765,591.726,-121.012,632.325,0,618.909" fill="#11374f"></path>
        <path d="M828 2621.916C981.8240000000001 2613.625 1052.768 2425.013 1172.608 2328.2200000000003 1276.175 2244.57 1409.37 2201.744 1484.384 2091.76 1567.455 1969.963 1653.626 1821.197 1615.568 1678.765 1577.5320000000002 1536.413 1394.435 1496.116 1295.946 1386.5230000000001 1200.041 1279.8049999999998 1179.347 1101.5549999999998 1047.013 1046.109 913.753 990.275 759.409 1049.191 626.594 1106.074 504.022 1158.5700000000002 409.383 1252.877 324.374 1355.606 241.01999999999998 1456.335 149.09400000000005 1562.71 140.75300000000004 1693.189 132.59699999999998 1820.784 225.91899999999998 1926.416 280.494 2042.038 334.277 2155.9809999999998 372.162 2275.087 458.662 2366.702 563.52 2477.76 675.482 2630.1369999999997 828 2621.916" fill="#194f71"></path>
    </g>
    <defs>
        <mask id="SvgjsMask1013">
            <rect width="828" height="1792" fill="#ffffff"></rect>
        </mask>
    </defs>
</svg>