<svg width="400" height="120" viewBox="0 0 400 120" fill="none" xmlns="http://www.w3.org/2000/svg">
<path opacity="0.25" d="M400 120V73.71C384.07 51.51 365.47 41.54 347.333 45.71C323.88 51.08 301.89 79.02 278.4 83.21C253.787 87.57 229.22 66.33 205.667 47.95C182.577 29.95 159.567 23.07 135.867 34.87C123.817 40.87 112.583 52.71 101.05 64.21C70.17 95 29 134.29 -1.19209e-05 67.53V120L400 120Z" fill="#00898A"/>
<path opacity="0.5" d="M400 120V104.19C395.667 83.08 390.787 63.14 384.103 47.95C366.863 8.73 345 9 325.14 28.42C314.757 38.57 305.11 54.49 295.25 68.22C281.61 87.22 267.007 114.22 251.64 117.89C239.553 120.74 228.007 108.47 218.773 86.33C208.183 60.94 198 24.33 184.23 13.33C170.75 2.54 157.113 20.02 144.52 37.61C131.927 55.2 119.467 76.61 105.547 80.66C85.6367 86.51 67.7867 57.78 49.2467 41.82C39.18 33.16 29.58 35.65 20.2167 49.32C12.74 60.21 4.21665 76.25 -1.19209e-05 98.56V120L400 120Z" fill="#00898A"/>
<path d="M400 120V114.37C350.023 61 295.303 48.68 241.39 77.43C227.057 85.07 213.313 97.55 198.853 103.89C179.187 112.52 161.36 91.65 143.667 68.49C124.023 42.78 104.667 24.76 82.9333 30C54.09 37 25.4467 75.71 -1.19209e-05 114.81V120L400 120Z" fill="#00898A"/>
</svg>
