<svg width="450" height="347" viewBox="0 0 450 347" fill="none" xmlns="http://www.w3.org/2000/svg">
<path d="M0 111L10.7 98.0001C21.3 85.0001 42.7 59.0001 64.2 35.7001C85.7 12.3001 107.3 -8.2999 128.8 3.5001C150.3 15.3001 171.7 59.7001 193 83.5001C214.3 107.3 235.7 110.7 257 111.5C278.3 112.3 299.7 110.7 321.2 100C342.7 89.3001 364.3 69.7001 385.8 70.7001C407.3 71.7001 428.7 93.3001 439.3 104.2L450 115V347H439.3C428.7 347 407.3 347 385.8 347C364.3 347 342.7 347 321.2 347C299.7 347 278.3 347 257 347C235.7 347 214.3 347 193 347C171.7 347 150.3 347 128.8 347C107.3 347 85.7 347 64.2 347C42.7 347 21.3 347 10.7 347H0V111Z" fill="#F9F871"/>
<path d="M0 147L10.7 144C21.3 141 42.7 135 64.2 130.3C85.7 125.7 107.3 122.3 128.8 119.7C150.3 117 171.7 115 193 101.3C214.3 87.7 235.7 62.3 257 67.3C278.3 72.3 299.7 107.7 321.2 125.3C342.7 143 364.3 143 385.8 142C407.3 141 428.7 139 439.3 138L450 137V347H439.3C428.7 347 407.3 347 385.8 347C364.3 347 342.7 347 321.2 347C299.7 347 278.3 347 257 347C235.7 347 214.3 347 193 347C171.7 347 150.3 347 128.8 347C107.3 347 85.7 347 64.2 347C42.7 347 21.3 347 10.7 347H0V147Z" fill="#DEF172"/>
<path d="M0 138L10.7 141C21.3 144 42.7 150 64.2 160.3C85.7 170.7 107.3 185.3 128.8 194.3C150.3 203.3 171.7 206.7 193 199.5C214.3 192.3 235.7 174.7 257 174C278.3 173.3 299.7 189.7 321.2 192.5C342.7 195.3 364.3 184.7 385.8 171C407.3 157.3 428.7 140.7 439.3 132.3L450 124V347H439.3C428.7 347 407.3 347 385.8 347C364.3 347 342.7 347 321.2 347C299.7 347 278.3 347 257 347C235.7 347 214.3 347 193 347C171.7 347 150.3 347 128.8 347C107.3 347 85.7 347 64.2 347C42.7 347 21.3 347 10.7 347H0V138Z" fill="#C4EA74"/>
<path d="M0 213L10.7 216C21.3 219 42.7 225 64.2 229.3C85.7 233.7 107.3 236.3 128.8 233.3C150.3 230.3 171.7 221.7 193 215.2C214.3 208.7 235.7 204.3 257 208.5C278.3 212.7 299.7 225.3 321.2 230.7C342.7 236 364.3 234 385.8 232.8C407.3 231.7 428.7 231.3 439.3 231.2L450 231V347H439.3C428.7 347 407.3 347 385.8 347C364.3 347 342.7 347 321.2 347C299.7 347 278.3 347 257 347C235.7 347 214.3 347 193 347C171.7 347 150.3 347 128.8 347C107.3 347 85.7 347 64.2 347C42.7 347 21.3 347 10.7 347H0V213Z" fill="#ABE277"/>
<path d="M0 276L10.7 277.5C21.3 279 42.7 282 64.2 286C85.7 290 107.3 295 128.8 295.5C150.3 296 171.7 292 193 285.7C214.3 279.3 235.7 270.7 257 272.2C278.3 273.7 299.7 285.3 321.2 282.5C342.7 279.7 364.3 262.3 385.8 253.5C407.3 244.7 428.7 244.3 439.3 244.2L450 244V347H439.3C428.7 347 407.3 347 385.8 347C364.3 347 342.7 347 321.2 347C299.7 347 278.3 347 257 347C235.7 347 214.3 347 193 347C171.7 347 150.3 347 128.8 347C107.3 347 85.7 347 64.2 347C42.7 347 21.3 347 10.7 347H0V276Z" fill="#92DA7B"/>
</svg>
