<svg width="900" height="135" viewBox="0 0 900 135" fill="none" xmlns="http://www.w3.org/2000/svg">
<path d="M0 38.9761L21.5 38.0703C43 37.1644 86 35.3526 128.8 32.1518C171.7 28.8906 214.3 24.3008 257.2 24.7839C300 25.2671 343 30.944 385.8 24.7839C428.7 18.6239 471.3 0.74778 514.2 0.0230717C557 -0.701637 600 15.8459 642.8 21.5832C685.7 27.3204 728.3 22.2475 771.2 21.9455C814 21.6435 857 26.1126 878.5 28.2867L900 30.5212V135H878.5C857 135 814 135 771.2 135C728.3 135 685.7 135 642.8 135C600 135 557 135 514.2 135C471.3 135 428.7 135 385.8 135C343 135 300 135 257.2 135C214.3 135 171.7 135 128.8 135C86 135 43 135 21.5 135H0V38.9761Z" fill="#F9F871"/>
<path d="M0 19L21.5 21.2958C43 23.6521 86 28.2437 128.8 27.0354C171.7 25.8271 214.3 18.8188 257.2 20.0271C300 21.2354 343 30.6604 385.8 33.6812C428.7 36.7021 471.3 33.3188 514.2 34.5271C557 35.7354 600 41.5354 642.8 39.5417C685.7 37.5479 728.3 27.6396 771.2 26.975C814 26.25 857 34.7083 878.5 38.9375L900 43.1667V135H878.5C857 135 814 135 771.2 135C728.3 135 685.7 135 642.8 135C600 135 557 135 514.2 135C471.3 135 428.7 135 385.8 135C343 135 300 135 257.2 135C214.3 135 171.7 135 128.8 135C86 135 43 135 21.5 135H0V19Z" fill="#DEF172"/>
<path d="M0 36L21.5 42.8213C43 49.703 86 63.3457 128.8 63.5872C171.7 63.7683 214.3 50.4878 257.2 45.7793C300 41.0104 343 44.8738 385.8 45.0549C428.7 45.236 471.3 41.8555 514.2 41.0104C557 40.2256 600 42.0366 642.8 43.6665C685.7 45.236 728.3 46.6847 771.2 47.0469C814 47.4695 857 46.8659 878.5 46.564L900 46.2622V135H878.5C857 135 814 135 771.2 135C728.3 135 685.7 135 642.8 135C600 135 557 135 514.2 135C471.3 135 428.7 135 385.8 135C343 135 300 135 257.2 135C214.3 135 171.7 135 128.8 135C86 135 43 135 21.5 135H0V36Z" fill="#C4EA74"/>
<path d="M0 73L21.5 73.7825C43 74.6252 86 76.1903 128.8 79.1398C171.7 82.0291 214.3 86.2427 257.2 89.6738C300 93.0447 343 95.6932 385.8 94.5495C428.7 93.466 471.3 88.6505 514.2 87.567C557 86.4233 600 89.0719 642.8 89.3728C685.7 89.6738 728.3 87.6272 771.2 84.6175C814 81.6078 857 77.6349 878.5 75.5883L900 73.6019V135H878.5C857 135 814 135 771.2 135C728.3 135 685.7 135 642.8 135C600 135 557 135 514.2 135C471.3 135 428.7 135 385.8 135C343 135 300 135 257.2 135C214.3 135 171.7 135 128.8 135C86 135 43 135 21.5 135H0V73Z" fill="#ABE277"/>
<path d="M0 111.991L21.5 108.782C43 105.512 86 99.0942 128.8 96.0667C171.7 93.0392 214.3 93.4025 257.2 96.7327C300 100.063 343 106.36 385.8 107.268C428.7 108.177 471.3 103.696 514.2 103.514C557 103.333 600 107.329 642.8 110.175C685.7 113.021 728.3 114.595 771.2 113.202C814 111.81 857 107.329 878.5 105.149L900 102.909V135H878.5C857 135 814 135 771.2 135C728.3 135 685.7 135 642.8 135C600 135 557 135 514.2 135C471.3 135 428.7 135 385.8 135C343 135 300 135 257.2 135C214.3 135 171.7 135 128.8 135C86 135 43 135 21.5 135H0V111.991Z" fill="#92DA7B"/>
</svg>
