<svg width="900" height="224" viewBox="0 0 900 224" fill="none" xmlns="http://www.w3.org/2000/svg">
<path d="M0 65L21.5 63.5C43 62 86 59 128.8 53.7C171.7 48.3 214.3 40.7 257.2 41.5C300 42.3 343 51.7 385.8 41.5C428.7 31.3 471.3 1.7 514.2 0.499995C557 -0.700005 600 26.7 642.8 36.2C685.7 45.7 728.3 37.3 771.2 36.8C814 36.3 857 43.7 878.5 47.3L900 51V224H878.5C857 224 814 224 771.2 224C728.3 224 685.7 224 642.8 224C600 224 557 224 514.2 224C471.3 224 428.7 224 385.8 224C343 224 300 224 257.2 224C214.3 224 171.7 224 128.8 224C86 224 43 224 21.5 224H0V65Z" fill="#F9F871"/>
<path d="M0 32L21.5 35.8C43 39.7 86 47.3 128.8 45.3C171.7 43.3 214.3 31.7 257.2 33.7C300 35.7 343 51.3 385.8 56.3C428.7 61.3 471.3 55.7 514.2 57.7C557 59.7 600 69.3 642.8 66C685.7 62.7 728.3 46.3 771.2 45.2C814 44 857 58 878.5 65L900 72V224H878.5C857 224 814 224 771.2 224C728.3 224 685.7 224 642.8 224C600 224 557 224 514.2 224C471.3 224 428.7 224 385.8 224C343 224 300 224 257.2 224C214.3 224 171.7 224 128.8 224C86 224 43 224 21.5 224H0V32Z" fill="#DEF172"/>
<path d="M0 60L21.5 71.3C43 82.7 86 105.3 128.8 105.7C171.7 106 214.3 84 257.2 76.2C300 68.3 343 74.7 385.8 75C428.7 75.3 471.3 69.7 514.2 68.3C557 67 600 70 642.8 72.7C685.7 75.3 728.3 77.7 771.2 78.3C814 79 857 78 878.5 77.5L900 77V224H878.5C857 224 814 224 771.2 224C728.3 224 685.7 224 642.8 224C600 224 557 224 514.2 224C471.3 224 428.7 224 385.8 224C343 224 300 224 257.2 224C214.3 224 171.7 224 128.8 224C86 224 43 224 21.5 224H0V60Z" fill="#C4EA74"/>
<path d="M0 121L21.5 122.3C43 123.7 86 126.3 128.8 131.2C171.7 136 214.3 143 257.2 148.7C300 154.3 343 158.7 385.8 156.8C428.7 155 471.3 147 514.2 145.2C557 143.3 600 147.7 642.8 148.2C685.7 148.7 728.3 145.3 771.2 140.3C814 135.3 857 128.7 878.5 125.3L900 122V224H878.5C857 224 814 224 771.2 224C728.3 224 685.7 224 642.8 224C600 224 557 224 514.2 224C471.3 224 428.7 224 385.8 224C343 224 300 224 257.2 224C214.3 224 171.7 224 128.8 224C86 224 43 224 21.5 224H0V121Z" fill="#ABE277"/>
<path d="M0 186L21.5 180.7C43 175.3 86 164.7 128.8 159.7C171.7 154.7 214.3 155.3 257.2 160.8C300 166.3 343 176.7 385.8 178.2C428.7 179.7 471.3 172.3 514.2 172C557 171.7 600 178.3 642.8 183C685.7 187.7 728.3 190.3 771.2 188C814 185.7 857 178.3 878.5 174.7L900 171V224H878.5C857 224 814 224 771.2 224C728.3 224 685.7 224 642.8 224C600 224 557 224 514.2 224C471.3 224 428.7 224 385.8 224C343 224 300 224 257.2 224C214.3 224 171.7 224 128.8 224C86 224 43 224 21.5 224H0V186Z" fill="#92DA7B"/>
</svg>
