<svg width="400" height="120" viewBox="0 0 400 120" fill="none" xmlns="http://www.w3.org/2000/svg">
<path opacity="0.25" d="M0 0V46.29C15.93 68.49 34.53 78.46 52.6667 74.29C76.12 68.92 98.11 40.98 121.6 36.79C146.213 32.43 170.78 53.67 194.333 72.05C217.423 90.05 240.433 96.93 264.133 85.13C276.183 79.13 287.417 67.29 298.95 55.79C329.83 25 371 -14.29 400 52.47V0H0Z" fill="#00898A"/>
<path opacity="0.5" d="M0 0V15.81C4.33333 36.92 9.21333 56.86 15.8967 72.05C33.1367 111.27 55 111 74.86 91.58C85.2433 81.43 94.89 65.51 104.75 51.78C118.39 32.78 132.993 5.78 148.36 2.11C160.447 -0.74 171.993 11.53 181.227 33.67C191.817 59.06 202 95.67 215.77 106.67C229.25 117.46 242.887 99.98 255.48 82.39C268.073 64.8 280.533 43.39 294.453 39.34C314.363 33.49 332.213 62.22 350.753 78.18C360.82 86.84 370.42 84.35 379.783 70.68C387.26 59.79 395.783 43.75 400 21.44V0H0Z" fill="#00898A"/>
<path d="M0 0V5.63C49.9767 59 104.697 71.32 158.61 42.57C172.943 34.93 186.687 22.45 201.147 16.11C220.813 7.48 238.64 28.35 256.333 51.51C275.977 77.22 295.333 95.24 317.067 90C345.91 83 374.553 44.29 400 5.19V0H0Z" fill="#00898A"/>
</svg>
